<?xml version="1.0" encoding="iso-8859-1"?>
<!-- Generator: Adobe Illustrator 22.1.0, SVG Export Plug-In . SVG Version: 6.00 Build 0)  -->
<svg version="1.1" id="OBJECTS" xmlns="http://www.w3.org/2000/svg" xmlns:xlink="http://www.w3.org/1999/xlink" x="0px" y="0px"
	 viewBox="0 0 496.406 486.625" style="enable-background:new 0 0 496.406 486.625;" xml:space="preserve">
<path style="fill:#1C1C1C;" d="M481.36,486.625H15.018c-8.25,0-15-6.75-15-15V15.015c0-8.25,6.75-15,15-15H481.36
	c8.25,0,15,6.75,15,15v456.61C496.36,479.875,489.61,486.625,481.36,486.625z"/>
<g>
	<polyline style="fill:#810729;" points="257.56,212.61 207.34,162.652 184.824,281.035 181.537,294.295 177.66,333.687 
		224.819,395.7 	"/>
</g>
<polygon style="fill:#ED2A27;" points="193.19,263.878 189.008,247.149 151.67,97.792 91.926,97.792 166.605,396.506 224.819,395.7 
	"/>
<linearGradient id="SVGID_1_" gradientUnits="userSpaceOnUse" x1="129.2666" y1="321.8272" x2="224.8189" y2="321.8272">
	<stop  offset="0" style="stop-color:#FE8A03"/>
	<stop  offset="1" style="stop-color:#FA3421"/>
</linearGradient>
<polygon style="fill:url(#SVGID_1_);" points="193.19,263.878 189.008,247.149 129.267,247.149 166.605,396.506 224.819,395.7 "/>
<g>
	<polyline style="fill:#810729;" points="357.702,211.878 304.569,161.921 283.87,281.035 280.583,294.295 276.706,333.687 
		323.864,395.7 	"/>
</g>
<g>
	<g>
		<polyline style="fill:#ED2A27;" points="230.645,258.785 291.82,261.698 267.084,162.652 207.34,162.652 		"/>
	</g>
	<g>
		<linearGradient id="SVGID_2_" gradientUnits="userSpaceOnUse" x1="227.732" y1="321.819" x2="323.8643" y2="321.819">
			<stop  offset="0" style="stop-color:#FE8A03"/>
			<stop  offset="1" style="stop-color:#FA3421"/>
		</linearGradient>
		<polygon style="fill:url(#SVGID_2_);" points="292.236,263.878 288.054,247.149 227.732,247.132 265.65,396.506 323.864,395.7 		
			"/>
	</g>
</g>
<g>
	<polyline style="fill:#ED2A27;" points="341.923,311.237 401.665,311.237 364.327,161.88 304.582,161.88 	"/>
</g>
</svg>
